<?xml version="1.0" encoding="UTF-8"?>
<svg width="324px" height="117px" viewBox="0 0 324 117" version="1.1" xmlns="http://www.w3.org/2000/svg" xmlns:xlink="http://www.w3.org/1999/xlink">
    <!-- Generator: Sketch 46.2 (44496) - http://www.bohemiancoding.com/sketch -->
    <title>badge_appstore</title>
    <desc>Created with Sketch.</desc>
    <defs></defs>
    <g id="Page-1" stroke="none" stroke-width="1" fill="none" fill-rule="evenodd">
        <g id="App-badges-&amp;-Assets" transform="translate(-134.000000, -228.000000)">
            <g id="badge_appstore" transform="translate(134.000000, 228.000000)">
                <rect id="Rectangle-Copy-8" fill="#000000" x="0" y="0" width="324" height="117" rx="6"></rect>
                <path d="M72.5966855,56.9988543 C72.5254293,49.1734803 79.0809975,45.3664103 79.3807648,45.1891679 C75.6680724,39.8403317 69.9135219,39.1095102 67.8913208,39.0512387 C63.0581864,38.5486472 58.3700214,41.9089692 55.9079977,41.9089692 C53.3968318,41.9089692 49.6055118,39.0997983 45.5193387,39.1823496 C40.2611243,39.2624728 35.3419911,42.270738 32.6440848,46.9421682 C27.0762747,56.4671271 31.2287898,70.464422 36.5631745,78.1635412 C39.2315954,81.9366194 42.3496674,86.1443058 46.4309263,85.9961992 C50.4237293,85.8359526 51.9151947,83.4808136 56.7335865,83.4808136 C61.5077503,83.4808136 62.9083027,85.9961992 67.0706462,85.89908 C71.3558452,85.8359526 74.0537514,82.1138619 76.6288022,78.3067919 C79.7124746,73.9898465 80.9508578,69.7287446 81,69.5102265 C80.9017156,69.4786628 72.6802272,66.3781345 72.5966855,56.9988543" id="Fill-2-Copy-2" fill="#FFFFFF"></path>
                <path d="M64.636814,33.7172043 C66.8407568,31.1197711 68.3487178,27.5860262 67.9301199,24 C64.7402026,24.1330798 60.7509147,26.0793724 58.4536699,28.6197714 C56.4212008,30.8583643 54.6055957,34.5275654 55.074627,37.9781353 C58.6579254,38.2300365 62.3370475,36.2742382 64.636814,33.7172043" id="Fill-3-Copy-2" fill="#FFFFFF"></path>
                <path d="M129,85 L123.542323,85 L120.552737,75.600541 L110.161282,75.600541 L107.313485,85 L102,85 L112.29773,53 L118.656609,53 L129,85 L129,85 Z M119.651535,71.6570484 L116.947931,63.3035768 C116.661949,62.4475503 116.123632,60.4373309 115.335381,57.2729185 L115.239252,57.2729185 C114.922029,58.6339044 114.414953,60.6441238 113.720427,63.3035768 L111.062483,71.6570484 L119.651535,71.6570484 L119.651535,71.6570484 Z" id="Fill-4-Copy-2" fill="#FFFFFF"></path>
                <path d="M157,73.7636656 C157,77.6993569 155.897175,80.8102894 153.689036,83.0940514 C151.712415,85.1270096 149.255331,86.142283 146.325252,86.142283 C143.161165,86.142283 140.88581,85.0498392 139.504167,82.857717 L139.504167,95 L134.196666,95 L134.196666,70.0836013 C134.196666,67.6117363 134.129451,65.0771704 134,62.477492 L138.667713,62.477492 L138.963957,66.14791 L139.063535,66.14791 C140.833532,63.3818328 143.519645,62 147.124364,62 C149.942418,62 152.294945,63.0779743 154.176967,65.2363344 C156.0565,67.3995177 157,70.2403537 157,73.7636656 L157,73.7636656 Z M151.592921,73.9517685 C151.592921,71.6993569 151.070137,69.8424437 150.019591,68.3810289 C148.871956,66.8593248 147.330988,66.0948553 145.399177,66.0948553 C144.089728,66.0948553 142.899773,66.5192926 141.836779,67.3585209 C140.771296,68.2001608 140.07425,69.3022508 139.748133,70.6696141 C139.583829,71.3038585 139.501678,71.8223473 139.501678,72.2323151 L139.501678,76.0956592 C139.501678,77.7741158 140.034419,79.1945338 141.099903,80.3569132 C142.165386,81.5144695 143.549518,82.0956592 145.2523,82.0956592 C147.251326,82.0956592 148.80723,81.3456592 149.920013,79.857717 C151.035285,78.3649518 151.592921,76.3971061 151.592921,73.9517685 L151.592921,73.9517685 Z" id="Fill-5-Copy-2" fill="#FFFFFF"></path>
                <path d="M185,73.7636656 C185,77.6993569 183.897294,80.8102894 181.689394,83.0940514 C179.710498,85.1270096 177.256169,86.142283 174.323918,86.142283 C171.162662,86.142283 168.887554,85.0498392 167.503571,82.857717 L167.503571,95 L162.196645,95 L162.196645,70.0836013 C162.196645,67.6117363 162.129437,65.0771704 162,62.477492 L166.667208,62.477492 L166.96342,66.14791 L167.062987,66.14791 C168.830303,63.3818328 171.516126,62 175.122944,62 C177.938203,62 180.292965,63.0779743 182.177273,65.2363344 C184.054113,67.3995177 185,70.2403537 185,73.7636656 L185,73.7636656 Z M179.591017,73.9517685 C179.591017,71.6993569 179.065801,69.8424437 178.015368,68.3810289 C176.870346,66.8593248 175.332035,66.0948553 173.400433,66.0948553 C172.091126,66.0948553 170.901299,66.5192926 169.833442,67.3585209 C168.770563,68.2001608 168.073593,69.3022508 167.747511,70.6696141 C167.585714,71.3038585 167.498593,71.8223473 167.498593,72.2323151 L167.498593,76.0956592 C167.498593,77.7741158 168.033766,79.1945338 169.094156,80.3569132 C170.159524,81.5120579 171.543506,82.0956592 173.251082,82.0956592 C175.252381,82.0956592 176.808117,81.3456592 177.91829,79.857717 C179.033442,78.3649518 179.591017,76.3971061 179.591017,73.9517685 L179.591017,73.9517685 Z" id="Fill-6-Copy-2" fill="#FFFFFF"></path>
                <path d="M214,75.5373668 C214,78.2636841 213.042888,80.4818275 211.133511,82.1942052 C209.035134,84.0631295 206.105646,85 202.349891,85 C198.880058,85 196.098377,84.3352795 194,83.0034302 L195.194572,78.72369 C197.460141,80.0555393 199.948631,80.7226682 202.657621,80.7226682 C204.605767,80.7226682 206.120184,80.2843381 207.200872,79.4149029 C208.286407,78.540651 208.831597,77.3773902 208.831597,75.922712 C208.831597,74.6197635 208.380906,73.5263465 207.489217,72.6376441 C206.595105,71.7537586 205.117034,70.9252664 203.042888,70.1690264 C197.397141,68.0761203 194.571844,65.0126259 194.571844,60.9881769 C194.571844,58.3581959 195.570148,56.2050796 197.559486,54.5216027 C199.551248,52.8405342 202.192392,52 205.478071,52 C208.412406,52 210.857281,52.508174 212.798158,53.5221136 L211.501817,57.7079259 C209.674824,56.7252956 207.612794,56.2339804 205.306033,56.2339804 C203.483887,56.2339804 202.051854,56.6795358 201.031742,57.5658298 C200.171553,58.3581959 199.732978,59.3239673 199.732978,60.4703693 C199.732978,61.7347832 200.229707,62.7848489 201.220741,63.6061159 C202.078507,64.3671727 203.643809,65.1932565 205.906954,66.0795504 C208.68379,67.1922347 210.72159,68.487958 212.030046,69.9763538 C213.345772,71.4647497 214,73.3216319 214,75.5373668" id="Fill-7-Copy-2" fill="#FFFFFF"></path>
                <path d="M231,66.8317466 L225.369331,66.8317466 L225.369331,78.3033487 C225.369331,81.2211097 226.361287,82.6762968 228.349991,82.6762968 C229.262879,82.6762968 230.020024,82.5975049 230.619031,82.4325345 L230.760397,86.41891 C229.754065,86.8054826 228.42906,87 226.790176,87 C224.770323,87 223.196132,86.3647406 222.055622,85.1016087 C220.919904,83.8360144 220.352045,81.716021 220.352045,78.7317794 L220.352045,66.8218976 L217,66.8218976 L217,62.8823047 L220.352045,62.8823047 L220.352045,58.5561392 L225.369331,57 L225.369331,62.8823047 L231,62.8823047 L231,66.8317466" id="Fill-8-Copy-2" fill="#FFFFFF"></path>
                <path d="M257,73.7841727 C257,77.3213429 255.969784,80.2254197 253.906905,82.4964029 C251.751037,84.8321343 248.883073,86 245.307905,86 C241.857538,86 239.114374,84.8800959 237.068624,82.6402878 C235.022875,80.4004796 234,77.5755396 234,74.1678657 C234,70.6019185 235.059581,67.6810552 237.16406,65.4100719 C239.273433,63.1390887 242.116927,62 245.692095,62 C249.140015,62 251.905203,63.1247002 254.002341,65.3621103 C256.004043,67.5371703 257,70.3405276 257,73.7841727 L257,73.7841727 Z M251.591978,73.9016787 C251.591978,71.793765 251.127035,69.9856115 250.194702,68.4724221 C249.100862,66.6450839 247.532291,65.7338129 245.506118,65.7338129 C243.418768,65.7338129 241.811044,66.6450839 240.722098,68.4724221 C239.784871,69.9856115 239.322375,71.82494 239.322375,73.9976019 C239.322375,76.1079137 239.784871,77.9208633 240.722098,79.4268585 C241.850197,81.2565947 243.423662,82.1702638 245.464518,82.1702638 C247.456432,82.1702638 249.020109,81.235012 250.153101,79.383693 C251.109905,77.8345324 251.591978,76.0143885 251.591978,73.9016787 L251.591978,73.9016787 Z" id="Fill-9-Copy-2" fill="#FFFFFF"></path>
                <path d="M275,67.0798448 C274.465927,66.9842761 273.893886,66.937717 273.299065,66.937717 C271.400701,66.937717 269.932632,67.6263018 268.899922,69.0181744 C268.001363,70.2434143 267.553349,71.7921176 267.553349,73.6618338 L267.553349,86 L262.156931,86 L262.156931,69.8905452 C262.156931,67.182765 262.103777,64.7102308 262,62.4876455 L266.70035,62.4876455 L266.89778,66.9867266 L267.047118,66.9867266 C267.619159,65.4404738 268.515187,64.1931795 269.745327,63.2619971 C270.950156,62.4190321 272.246106,62 273.645833,62 C274.14447,62 274.595016,62.0367572 274.994938,62.0955687 L275,67.0798448" id="Fill-10-Copy-2" fill="#FFFFFF"></path>
                <path d="M297,72.9510363 C297,73.8690297 296.938438,74.6428357 296.807927,75.2748573 L281.060389,75.2748573 C281.117026,77.5530189 281.882856,79.297687 283.343105,80.499249 C284.67038,81.5710424 286.389189,82.1093421 288.494606,82.1093421 C290.826571,82.1093421 292.954151,81.7488735 294.867495,81.0183238 L295.689962,84.5749474 C293.454034,85.5241814 290.811796,86 287.768175,86 C284.10401,86 281.227838,84.9474317 279.134733,82.8471012 C277.049015,80.7443677 276,77.9158907 276,74.378492 C276,70.9035746 276.970216,68.0078102 278.920497,65.6984079 C280.959428,63.2328026 283.714939,62 287.182106,62 C290.587711,62 293.165924,63.2328026 294.914282,65.6984079 C296.303119,67.6521478 297,70.0744968 297,72.9510363 L297,72.9510363 Z M291.993785,71.6221087 C292.030722,70.1009312 291.685976,68.7936317 290.97432,67.6833884 C290.065666,66.2559327 288.666979,65.544608 286.793035,65.544608 C285.074226,65.544608 283.678002,66.2391108 282.614212,67.6329228 C281.740033,68.740763 281.22045,70.0744968 281.060389,71.6173025 L291.993785,71.6221087 L291.993785,71.6221087 Z" id="Fill-11-Copy-2" fill="#FFFFFF"></path>
                <path d="M118,42 L115.370813,42 L113.932645,37.3010243 L108.930835,37.3010243 L107.558573,42 L105,42 L109.957089,26 L113.01702,26 L118,42 L118,42 Z M113.499547,35.3294603 L112.1979,31.1515059 C112.06138,30.7234368 111.809524,29.7278704 111.421148,28.1378994 L111.374072,28.1378994 C111.214014,28.8252561 110.985696,29.8232686 110.642042,31.1515059 L109.363933,35.3294603 L113.499547,35.3294603 L113.499547,35.3294603 Z" id="Fill-12-Copy-2" fill="#FFFFFF"></path>
                <path d="M131,30 L126.666005,42 L124.19325,42 L120,30 L122.732407,30 L124.688286,36.346056 C125.01831,37.4071247 125.299801,38.4198473 125.51092,39.3816794 L125.581293,39.3816794 C125.770571,38.519084 126.052063,37.5063613 126.403927,36.346056 L128.335539,30 L131,30" id="Fill-13-Copy-2" fill="#FFFFFF"></path>
                <path d="M139.809241,41.7390244 L139.628033,40.4146341 L139.560661,40.4146341 C138.817243,41.4804878 137.734641,42 136.359319,42 C134.398554,42 133,40.5560976 133,38.6146341 C133,35.7756098 135.344089,34.3073171 139.402685,34.3073171 L139.402685,34.095122 C139.402685,32.5804878 138.636035,31.8219512 137.125968,31.8219512 C136.043366,31.8219512 135.095509,32.1073171 134.26381,32.6756098 L133.768973,30.995122 C134.784202,30.3317073 136.045689,30 137.534848,30 C140.397006,30 141.842024,31.5853659 141.842024,34.7585366 L141.842024,38.995122 C141.842024,40.1560976 141.888487,41.0560976 142,41.7414634 L139.809241,41.7390244 L139.809241,41.7390244 Z M139.470057,36.0097561 C136.763552,36.0097561 135.411461,36.697561 135.411461,38.3292683 C135.411461,39.5365854 136.110738,40.1268293 137.079504,40.1268293 C138.320083,40.1268293 139.470057,39.1341463 139.470057,37.7853659 L139.470057,36.0097561 L139.470057,36.0097561 Z" id="Fill-14-Copy-2" fill="#FFFFFF"></path>
                <path d="M146,26.4730912 C146,25.6214974 146.657951,25 147.500878,25 C148.341463,25 149.022829,25.6214974 148.999414,26.4730912 C148.999414,27.3721275 148.364878,27.9699036 147.454048,27.9699036 C146.636878,27.9699036 146,27.324685 146,26.4730912 Z M146.273951,29.8130467 L148.727804,29.8130467 L148.727804,42 L146.273951,42 L146.273951,29.8130467 Z" id="Fill-15-Copy-2" fill="#FFFFFF"></path>
                <polygon id="Fill-16-Copy-2" fill="#FFFFFF" points="154 25 156.5 25 156.5 42 154 42"></polygon>
                <path d="M167.812758,41.7390774 L167.629132,40.4149563 L167.56405,40.4149563 C166.820248,41.4805934 165.737087,42 164.361054,42 C162.399277,42 161,40.556391 161,38.6153221 C161,35.7768746 163.3453,34.3088803 167.405992,34.3088803 L167.405992,34.0967283 C167.405992,32.582402 166.638946,31.8240195 165.128099,31.8240195 C164.044938,31.8240195 163.096591,32.1093274 162.264463,32.6775046 L161.767045,30.9949197 C162.7828,30.3316399 164.044938,30 165.534866,30 C168.398502,30 169.846591,31.5850437 169.846591,34.7575696 L169.846591,38.993294 C169.846591,40.1540337 169.893079,41.0538508 170,41.7390774 L167.812758,41.7390774 L167.812758,41.7390774 Z M167.473399,36.0109734 C164.765496,36.0109734 163.412707,36.6986385 163.412707,38.3300142 C163.412707,39.537086 164.112345,40.1272099 165.081612,40.1272099 C166.322831,40.1272099 167.473399,39.1347287 167.473399,37.7862223 L167.473399,36.0109734 L167.473399,36.0109734 Z" id="Fill-17-Copy-2" fill="#FFFFFF"></path>
                <path d="M179.946731,42 C178.326877,42 177.130751,41.3138686 176.353511,39.9683698 L176.305085,39.9683698 L176.159806,41.7396594 L174,41.7396594 C174.067797,40.8199513 174.09201,39.7785888 174.09201,38.6472019 L174.09201,25 L176.634383,25 L176.634383,31.9440389 L176.680387,31.9440389 C177.433414,30.6690998 178.653753,30.0316302 180.322034,30.0316302 C183.072639,30.0316302 185,32.3941606 185,35.8394161 C185,39.4014599 182.859564,42 179.946731,42 L179.946731,42 Z M179.430993,32.0340633 C177.970944,32.0340633 176.634383,33.3090024 176.634383,35.080292 L176.634383,37.0875912 C176.634383,38.6690998 177.835351,39.9683698 179.384988,39.9683698 C181.285714,39.9683698 182.418886,38.4111922 182.418886,35.9318735 C182.416465,33.6180049 181.239709,32.0340633 179.430993,32.0340633 L179.430993,32.0340633 Z" id="Fill-18-Copy-2" fill="#FFFFFF"></path>
                <polygon id="Fill-19-Copy-2" fill="#FFFFFF" points="189 25 191.5 25 191.5 42 189 42"></polygon>
                <path d="M204.912852,36.6403259 L197.410847,36.6403259 C197.460924,38.8228106 198.867848,40.0545825 200.949619,40.0545825 C202.063235,40.0545825 203.081466,39.8639511 203.982851,39.5095723 L204.371544,41.2887984 C203.308005,41.7629328 202.058465,42 200.601465,42 C197.08177,42 195,39.7221996 195,36.1906314 C195,32.6566191 197.131847,30 200.322465,30 C203.188774,30 204.998698,32.1824847 204.998698,35.4794297 C205.005852,35.9291242 204.98439,36.3323829 204.912852,36.6403259 L204.912852,36.6403259 Z M202.62362,34.814664 C202.62362,33.0354379 201.741311,31.7792261 200.143618,31.7792261 C198.708079,31.7792261 197.577771,33.0598778 197.410847,34.814664 L202.62362,34.814664 L202.62362,34.814664 Z" id="Fill-20-Copy-2" fill="#FFFFFF"></path>
                <path d="M221.405973,42 C218.12573,42 216,39.4902439 216,36.0829268 C216,32.5317073 218.170959,30 221.594027,30 C224.82428,30 227,32.3902439 227,35.895122 C227,39.4902439 224.757628,42 221.405973,42 L221.405973,42 Z M221.50119,31.8682927 C219.699199,31.8682927 218.544687,33.595122 218.544687,36.0097561 C218.544687,38.3780488 219.723004,40.104878 221.477386,40.104878 C223.231768,40.104878 224.410084,38.2585366 224.410084,35.9609756 C224.410084,33.6195122 223.255572,31.8682927 221.50119,31.8682927 L221.50119,31.8682927 Z" id="Fill-21-Copy-2" fill="#FFFFFF"></path>
                <path d="M240,42 L237.469151,42 L237.469151,35.2496884 C237.469151,33.170752 236.692475,32.128791 235.165739,32.128791 C233.663199,32.128791 232.627631,33.4599086 232.627631,35.0078936 L232.627631,42 L230.096782,42 L230.096782,33.6044869 C230.096782,32.5650187 230.067747,31.4507686 230,30.2417948 L232.230825,30.2417948 L232.349383,32.0565019 L232.42197,32.0565019 C233.097024,30.8001662 234.485846,30 236.036777,30 C238.427293,30 240,31.8869963 240,34.9580391 L240,42" id="Fill-22-Copy-2" fill="#FFFFFF"></path>
                <path d="M257,31.9115044 L254.185844,31.9115044 L254.185844,37.6470195 C254.185844,39.1071965 254.681311,39.8360327 255.674686,39.8360327 C256.12378,39.8360327 256.506974,39.7859409 256.812064,39.7133077 L256.882845,41.7069628 C256.384937,41.9023209 255.718619,42 254.896095,42 C252.877615,42 251.676778,40.8579062 251.676778,37.8674236 L251.676778,31.9115044 L250,31.9115044 L250,29.9428953 L251.676778,29.9428953 L251.676778,27.778928 L254.185844,27 L254.185844,29.9403907 L257,29.9403907 L257,31.9115044" id="Fill-23-Copy-2" fill="#FFFFFF"></path>
                <path d="M271,42 L268.438965,42 L268.438965,35.3581395 C268.438965,33.2726744 267.655273,32.2175872 266.117188,32.2175872 C264.791504,32.2175872 263.561035,33.1293605 263.561035,34.9751453 L263.561035,42 L261,42 L261,25 L263.561035,25 L263.561035,32.0001453 L263.609863,32.0001453 C264.413086,30.7300872 265.577637,30.1049419 267.069336,30.1049419 C269.508301,30.1049419 271,32.0223837 271,35.0690407 L271,42" id="Fill-24-Copy-2" fill="#FFFFFF"></path>
                <path d="M283.914514,36.6403259 L276.413637,36.6403259 C276.461337,38.8228106 277.868497,40.0545825 279.953001,40.0545825 C281.069189,40.0545825 282.085206,39.8639511 282.981972,39.5095723 L283.373115,41.2887984 C282.311783,41.7629328 281.059649,42 279.600019,42 C276.082119,42 274,39.7221996 274,36.1906314 C274,32.6566191 276.12982,30 279.320972,30 C282.190147,30 283.997989,32.1824847 283.997989,35.4794297 C284.007529,35.9291242 283.983679,36.3323829 283.914514,36.6403259 L283.914514,36.6403259 Z M281.622513,34.814664 C281.622513,33.0354379 280.744827,31.7792261 279.146866,31.7792261 C277.711086,31.7792261 276.578203,33.0598778 276.413637,34.814664 L281.622513,34.814664 L281.622513,34.814664 Z" id="Fill-25-Copy-2" fill="#FFFFFF"></path>
            </g>
        </g>
    </g>
</svg>